<?xml version="1.0" encoding="UTF-8"?>
<svg xmlns="http://www.w3.org/2000/svg" xmlns:xlink="http://www.w3.org/1999/xlink" width="2000" height="2000" viewBox="0 0 2000 2000">
<path fill-rule="evenodd" fill="rgb(95.701599%, 96.875%, 98.046875%)" fill-opacity="1" d="M 0 0.078125 L 1999.921875 0.078125 L 1999.921875 2000 L 0 2000 L 0 0.078125 "/>
<path fill-rule="evenodd" fill="rgb(95.701599%, 96.875%, 98.046875%)" fill-opacity="1" d="M 1908.238281 1915.15625 L 1889.179688 1915.15625 C 1888.300781 1915.15625 1887.589844 1915.871094 1887.589844 1916.746094 L 1887.589844 1935.800781 C 1887.589844 1936.679688 1888.300781 1937.394531 1889.179688 1937.394531 L 1908.238281 1937.394531 C 1909.109375 1937.394531 1909.828125 1936.679688 1909.828125 1935.800781 L 1909.828125 1916.746094 C 1909.828125 1915.871094 1909.109375 1915.15625 1908.238281 1915.15625 "/>
<path fill-rule="evenodd" fill="rgb(95.701599%, 96.875%, 98.046875%)" fill-opacity="1" d="M 1865.28125 1916.171875 L 1847.089844 1916.171875 C 1846.261719 1916.171875 1845.578125 1916.855469 1845.578125 1917.691406 L 1845.578125 1935.875 C 1845.578125 1936.710938 1846.261719 1937.394531 1847.089844 1937.394531 L 1865.28125 1937.394531 C 1866.109375 1937.394531 1866.800781 1936.710938 1866.800781 1935.875 L 1866.800781 1917.691406 C 1866.800781 1916.855469 1866.109375 1916.171875 1865.28125 1916.171875 "/>
<path fill-rule="evenodd" fill="rgb(95.701599%, 96.875%, 98.046875%)" fill-opacity="1" d="M 1822.320312 1917.1875 L 1805.011719 1917.1875 C 1804.210938 1917.1875 1803.558594 1917.839844 1803.558594 1918.636719 L 1803.558594 1935.949219 C 1803.558594 1936.742188 1804.210938 1937.394531 1805.011719 1937.394531 L 1822.320312 1937.394531 C 1823.121094 1937.394531 1823.769531 1936.742188 1823.769531 1935.949219 L 1823.769531 1918.636719 C 1823.769531 1917.839844 1823.121094 1917.1875 1822.320312 1917.1875 "/>
<path fill-rule="evenodd" fill="rgb(95.701599%, 96.875%, 98.046875%)" fill-opacity="1" d="M 1779.371094 1918.207031 L 1762.929688 1918.207031 C 1762.171875 1918.207031 1761.550781 1918.824219 1761.550781 1919.582031 L 1761.550781 1936.019531 C 1761.550781 1936.777344 1762.171875 1937.394531 1762.929688 1937.394531 L 1779.371094 1937.394531 C 1780.121094 1937.394531 1780.738281 1936.777344 1780.738281 1936.019531 L 1780.738281 1919.582031 C 1780.738281 1918.824219 1780.121094 1918.207031 1779.371094 1918.207031 "/>
<path fill-rule="evenodd" fill="rgb(95.701599%, 96.875%, 98.046875%)" fill-opacity="1" d="M 1736.410156 1919.222656 L 1720.839844 1919.222656 C 1720.128906 1919.222656 1719.539062 1919.808594 1719.539062 1920.523438 L 1719.539062 1936.09375 C 1719.539062 1936.808594 1720.128906 1937.394531 1720.839844 1937.394531 L 1736.410156 1937.394531 C 1737.128906 1937.394531 1737.710938 1936.808594 1737.710938 1936.09375 L 1737.710938 1920.523438 C 1737.710938 1919.808594 1737.128906 1919.222656 1736.410156 1919.222656 "/>
<path fill-rule="evenodd" fill="rgb(95.701599%, 96.875%, 98.046875%)" fill-opacity="1" d="M 1693.460938 1920.238281 L 1678.761719 1920.238281 C 1678.078125 1920.238281 1677.53125 1920.792969 1677.53125 1921.46875 L 1677.53125 1936.167969 C 1677.53125 1936.84375 1678.078125 1937.394531 1678.761719 1937.394531 L 1693.460938 1937.394531 C 1694.128906 1937.394531 1694.679688 1936.84375 1694.679688 1936.167969 L 1694.679688 1921.46875 C 1694.679688 1920.792969 1694.128906 1920.238281 1693.460938 1920.238281 "/>
<path fill-rule="evenodd" fill="rgb(95.701599%, 96.875%, 98.046875%)" fill-opacity="1" d="M 1650.5 1921.257812 L 1636.671875 1921.257812 C 1636.039062 1921.257812 1635.519531 1921.777344 1635.519531 1922.414062 L 1635.519531 1936.238281 C 1635.519531 1936.875 1636.039062 1937.394531 1636.671875 1937.394531 L 1650.5 1937.394531 C 1651.140625 1937.394531 1651.648438 1936.875 1651.648438 1936.238281 L 1651.648438 1922.414062 C 1651.648438 1921.777344 1651.140625 1921.257812 1650.5 1921.257812 "/>
<path fill-rule="evenodd" fill="rgb(95.701599%, 96.875%, 98.046875%)" fill-opacity="1" d="M 1607.539062 1922.273438 L 1594.589844 1922.273438 C 1593.988281 1922.273438 1593.511719 1922.761719 1593.511719 1923.355469 L 1593.511719 1936.3125 C 1593.511719 1936.90625 1593.988281 1937.394531 1594.589844 1937.394531 L 1607.539062 1937.394531 C 1608.140625 1937.394531 1608.628906 1936.90625 1608.628906 1936.3125 L 1608.628906 1923.355469 C 1608.628906 1922.761719 1608.140625 1922.273438 1607.539062 1922.273438 "/>
<path fill-rule="evenodd" fill="rgb(95.701599%, 96.875%, 98.046875%)" fill-opacity="1" d="M 1564.589844 1923.292969 L 1552.5 1923.292969 C 1551.949219 1923.292969 1551.488281 1923.746094 1551.488281 1924.300781 L 1551.488281 1936.386719 C 1551.488281 1936.941406 1551.949219 1937.394531 1552.5 1937.394531 L 1564.589844 1937.394531 C 1565.140625 1937.394531 1565.601562 1936.941406 1565.601562 1936.386719 L 1565.601562 1924.300781 C 1565.601562 1923.746094 1565.140625 1923.292969 1564.589844 1923.292969 "/>
<path fill-rule="nonzero" fill="rgb(24.31488%, 27.050781%, 30.589294%)" fill-opacity="1" d="M 509.535156 388.011719 C 577.988281 364.578125 657.175781 364.140625 748.847656 390.441406 L 795.304688 403.761719 L 765.277344 441.621094 C 705.96875 516.398438 641.253906 562.140625 571.90625 582.921875 C 502.066406 603.839844 428.792969 599.140625 352.648438 573.019531 L 311.71875 558.96875 L 336.851562 523.71875 C 383.625 458.121094 440.527344 411.640625 509.535156 388.011719 "/>
<path fill-rule="nonzero" fill="rgb(24.31488%, 27.050781%, 30.589294%)" fill-opacity="1" d="M 628.164062 1104.867188 C 609.832031 932.75 624.039062 778.648438 664.074219 638.851562 C 704.128906 498.980469 770.003906 373.570312 854.984375 258.859375 C 885.007812 235.289062 921.402344 268.730469 906.800781 297.28125 C 896.847656 310.71875 887.171875 324.308594 877.789062 338.058594 C 909.070312 440.011719 954.878906 535.628906 1019.988281 622.851562 C 1088.53125 714.660156 1178.429688 797.148438 1295.261719 867.890625 L 1261.890625 923 C 1137.238281 847.511719 1041.308594 759.488281 968.175781 661.53125 C 909.601562 583.070312 865.640625 498.21875 833.246094 408.308594 C 787.894531 485.679688 751.59375 568.070312 726.257812 656.539062 C 688.390625 788.769531 674.976562 934.738281 692.371094 1098.039062 L 628.164062 1104.867188 "/>
<path fill-rule="nonzero" fill="rgb(24.31488%, 27.050781%, 30.589294%)" fill-opacity="1" d="M 943.800781 1658.859375 C 882.804688 1719.320312 807.046875 1751.03125 731.550781 1748.78125 C 682.21875 1747.308594 636.300781 1750.226562 587.21875 1748.78125 C 511.566406 1746.554688 435.457031 1714.339844 374.441406 1653.851562 C 261.644531 1542.042969 217.351562 1337.675781 270.1875 1188.300781 C 290.046875 1132.148438 322.578125 1087.015625 364.074219 1056.488281 C 406.347656 1025.390625 457.472656 1009.6875 513.648438 1013.050781 C 560.101562 1015.828125 609.777344 1031.757812 660.332031 1062.984375 C 708.886719 1033.515625 759.425781 1017.785156 807.84375 1015.210938 C 861.933594 1012.332031 913.269531 1025.925781 956.398438 1055.179688 C 999.3125 1084.28125 1033.558594 1128.457031 1053.660156 1186.824219 C 1104.941406 1335.710938 1055.660156 1547.976562 943.800781 1658.859375 "/>
<path fill-rule="nonzero" fill="rgb(24.31488%, 27.050781%, 30.589294%)" fill-opacity="1" d="M 1751.78125 1029.59375 C 1749.539062 1098.925781 1722.671875 1159.578125 1677.121094 1200.152344 C 1639.351562 1233.800781 1637.648438 1236.121094 1635.988281 1238.40625 C 1632.839844 1242.726562 1629.730469 1246.988281 1592.410156 1280.253906 C 1546.789062 1320.933594 1484.238281 1344.261719 1414.859375 1342.628906 C 1253.058594 1338.820312 1045.089844 1175.546875 1077.261719 997.808594 C 1084.808594 956.101562 1106.101562 918.511719 1140.941406 889.308594 C 1169.738281 865.160156 1207.730469 846.941406 1254.730469 837.210938 C 1266.871094 792.96875 1287.800781 755.691406 1314.789062 727.308594 C 1344.929688 695.601562 1382.601562 675.089844 1424.148438 668.320312 C 1605.25 638.808594 1756.941406 869.800781 1751.78125 1029.59375 "/>
</svg>
